<svg xmlns="http://www.w3.org/2000/svg" viewBox="0 0 400 120" width="400" height="120">
  <defs>
    <radialGradient id="fcore" cx="50%" cy="50%" r="35%">
      <stop offset="0%" stop-color="#8a8aaa" stop-opacity="1"/>
      <stop offset="30%" stop-color="#5a5a7a" stop-opacity="0.8"/>
      <stop offset="70%" stop-color="#2a2a3a" stop-opacity="0.4"/>
      <stop offset="100%" stop-color="#1a1a2e" stop-opacity="0"/>
    </radialGradient>
    <radialGradient id="fneb" cx="45%" cy="48%" r="50%">
      <stop offset="0%" stop-color="#3a3a5a" stop-opacity="0.5"/>
      <stop offset="40%" stop-color="#2a2a4a" stop-opacity="0.25"/>
      <stop offset="100%" stop-color="#1a1a2e" stop-opacity="0"/>
    </radialGradient>
  </defs>
  <!-- === ICON === -->
  <circle cx="60" cy="60" r="42" fill="url(#fneb)"/>
  <!-- Orbital rings -->
  <ellipse cx="60" cy="60" rx="48" ry="12" fill="none" stroke="#1a1a2e" stroke-width="0.3" stroke-opacity="0.12" transform="rotate(-15 60 60)"/>
  <ellipse cx="60" cy="60" rx="42" ry="16" fill="none" stroke="#2a2a3a" stroke-width="0.5" stroke-opacity="0.2" transform="rotate(-30 60 60)"/>
  <ellipse cx="60" cy="60" rx="36" ry="18" fill="none" stroke="#2a2a3a" stroke-width="0.7" stroke-opacity="0.3" transform="rotate(25 60 60)"/>
  <ellipse cx="60" cy="60" rx="30" ry="12" fill="none" stroke="#1a1a2e" stroke-width="0.4" stroke-opacity="0.18" transform="rotate(55 60 60)"/>
  <ellipse cx="60" cy="60" rx="24" ry="20" fill="none" stroke="#2a2a3a" stroke-width="0.6" stroke-opacity="0.22" transform="rotate(-50 60 60)"/>
  <!-- Core -->
  <circle cx="60" cy="60" r="14" fill="url(#fcore)"/>
  <circle cx="60" cy="60" r="5" fill="#4a4a6a" opacity="0.7"/>
  <circle cx="60" cy="60" r="2" fill="#7a7a9a" opacity="0.9"/>
  <!-- Particles inner -->
  <circle cx="54" cy="48" r="1.3" fill="#3a3a5a" opacity="0.55"/>
  <circle cx="67" cy="52" r="1.0" fill="#2a2a3a" opacity="0.5"/>
  <circle cx="52" cy="65" r="1.2" fill="#3a3a5a" opacity="0.45"/>
  <circle cx="70" cy="68" r="0.9" fill="#2a2a3a" opacity="0.55"/>
  <circle cx="72" cy="57" r="1.1" fill="#2a2a3a" opacity="0.4"/>
  <circle cx="48" cy="58" r="0.7" fill="#3a3a5a" opacity="0.5"/>
  <circle cx="63" cy="75" r="1.0" fill="#2a2a3a" opacity="0.38"/>
  <circle cx="68" cy="44" r="0.9" fill="#2a2a3a" opacity="0.45"/>
  <!-- Particles mid -->
  <circle cx="38" cy="40" r="1.4" fill="#2a2a3a" opacity="0.4"/>
  <circle cx="82" cy="48" r="1.2" fill="#1a1a2e" opacity="0.35"/>
  <circle cx="78" cy="75" r="1.5" fill="#2a2a3a" opacity="0.33"/>
  <circle cx="40" cy="78" r="1.1" fill="#1a1a2e" opacity="0.38"/>
  <circle cx="85" cy="62" r="0.9" fill="#2a2a3a" opacity="0.3"/>
  <circle cx="35" cy="55" r="1.3" fill="#1a1a2e" opacity="0.33"/>
  <!-- Particles outer -->
  <circle cx="22" cy="35" r="0.9" fill="#1a1a2e" opacity="0.22"/>
  <circle cx="95" cy="42" r="0.7" fill="#2a2a3a" opacity="0.2"/>
  <circle cx="90" cy="85" r="1.0" fill="#1a1a2e" opacity="0.18"/>
  <circle cx="25" cy="88" r="0.8" fill="#2a2a3a" opacity="0.2"/>
  <circle cx="15" cy="58" r="0.6" fill="#1a1a2e" opacity="0.15"/>
  <!-- Transition particles to text -->
  <circle cx="112" cy="52" r="0.7" fill="#2a2a3a" opacity="0.2"/>
  <circle cx="118" cy="60" r="0.5" fill="#1a1a2e" opacity="0.15"/>
  <circle cx="108" cy="68" r="0.4" fill="#2a2a3a" opacity="0.18"/>
  <circle cx="122" cy="45" r="0.3" fill="#1a1a2e" opacity="0.12"/>
  <!-- === WORDMARK "nova" === -->
  <g fill="none" stroke="#1a1a2e" stroke-width="2.2" stroke-linecap="round" stroke-linejoin="round" opacity="0.82">
    <!-- n -->
    <path d="M148,78 L148,52 C148,44 154,42 160,42 C166,42 170,46 170,52 L170,78"/>
    <!-- o -->
    <ellipse cx="196" cy="60" rx="14" ry="18"/>
    <!-- v -->
    <path d="M224,42 L237,78 L250,42"/>
    <!-- a -->
    <path d="M280,52 C280,44 274,42 268,42 C262,42 258,46 258,52 L258,78"/>
    <line x1="280" y1="42" x2="280" y2="78"/>
    <path d="M258,60 L280,60"/>
  </g>
  <!-- Subtle particles around text -->
  <circle cx="145" cy="36" r="0.4" fill="#1a1a2e" opacity="0.12"/>
  <circle cx="285" cy="38" r="0.3" fill="#2a2a3a" opacity="0.1"/>
  <circle cx="210" cy="88" r="0.4" fill="#1a1a2e" opacity="0.1"/>
  <circle cx="240" cy="34" r="0.3" fill="#2a2a3a" opacity="0.08"/>
</svg>